<svg id="gh-dark-mode-only" width="250" height="74.079" viewBox="0 0 250 74.079" xmlns="http://www.w3.org/2000/svg">
  <style>#gh-dark-mode-only:target { color: #fff }</style>
  <path fill="currentColor" d="M78.789 22.543a9.688 9.688 0 0 0-2.958-.459c-5.763 0-9.741 3.213-9.741 11.067 0 3.774.867 6.987 3.57 8.772-1.683 1.428-3.621 3.825-3.723 5.355-.102 1.53 1.275 2.601 3.519 3.213-2.448 1.632-4.386 3.978-4.386 6.835 0 3.06 1.53 6.68 9.435 6.68 7.803 0 11.22-4.59 11.22-9.639 0-4.64-3.52-6.324-7.293-6.885-4.386-.612-7.396-.765-7.396-1.785 0-.816.766-1.836 1.53-2.652.868.153 1.734.255 2.653.255 6.834 0 9.537-4.08 9.537-10.302 0-2.958-.867-5.15-2.295-6.63a15.14 15.14 0 0 0 2.193.306c1.02 0 1.632-.612 1.632-1.887.05-.765-.153-1.53-.46-2.244zm-5.61 28.561a8.34 8.34 0 0 0 1.122.102c5.151.357 6.681 1.122 6.681 3.774 0 2.04-1.836 4.54-6.018 4.54-3.978 0-4.947-1.48-4.947-3.367.05-1.887 1.428-3.825 3.162-5.049zm2.346-11.475c-3.621 0-4.335-2.652-4.335-6.885 0-5.151 1.989-7.191 4.539-7.191 2.805 0 4.284 1.836 4.284 6.069-.05 5.202-1.377 8.007-4.488 8.007zm26.062-17.544c-5.457 0-9.384.765-10.302 1.428-.408.408-.561.969-.51 1.53 0 .408.051 2.04.663 3.06 1.836-.816 5.661-1.326 8.262-1.326 1.836 0 3.111.714 3.111 3.468v4.947c-1.173-.56-3.009-.765-4.488-.765-3.774 0-7.599 1.48-7.599 9.64 0 8.925 4.131 9.282 8.415 9.23 3.825 0 6.58-.917 8.16-1.937 0 0 .357-8.364.357-18.616v-3.417c0-5.355-2.244-7.243-6.069-7.243zm1.071 26.215c-.51.612-1.989.969-3.162.969-2.295 0-3.774-.255-3.774-5.304 0-5.151 1.989-5.967 4.335-5.967.969-.051 1.887.153 2.754.51 0 4.182-.153 9.792-.153 9.792zm29.479-15.402c0-8.11-.765-10.812-7.854-10.812-3.162 0-7.395.867-9.69 1.938V52.33c4.896 0 4.743 0 4.743-1.02V27.39c1.326-.765 2.856-1.122 4.386-1.122 3.11 0 3.468 1.785 3.468 6.426v19.687c4.998 0 4.947 0 4.947-1.02zm19.432-21.574v11.934a7.128 7.128 0 0 0-4.182-1.173c-5.05 0-9.027 4.998-9.027 16.626 0 12.75 3.978 14.535 9.588 14.535 3.621 0 6.426-.612 8.415-1.785V9.181c-3.927 0-4.794 0-4.794 2.142zm0 36.721a6.279 6.279 0 0 1-3.468.867c-2.754 0-4.386-1.275-4.386-10.761 0-9.64 2.6-11.934 5.15-11.934 1.225 0 1.939.153 2.704.765zm12.393-22.9V52.38c4.794 0 4.896 0 4.896-1.02V22.952c-3.927 0-4.896 0-4.896 2.193zm2.601-15.81c-1.887 0-2.703 1.428-2.703 3.57-.051 2.754.867 3.621 2.397 3.723 1.785 0 2.652-1.428 2.703-3.825.102-2.397-.56-3.468-2.397-3.468zm12.495 36.772c-2.09 0-3.315 1.581-3.315 3.417 0 2.04.816 3.366 3.315 3.366 1.785.051 3.213-1.326 3.315-3.11v-.256c0-2.04-.867-3.417-3.315-3.417zm19.738-24.022c-3.162 0-7.395.867-9.69 1.938V52.33c4.896 0 4.743 0 4.743-1.02V27.39c1.326-.765 2.856-1.122 4.386-1.122 3.111 0 3.468 1.785 3.468 6.426V52.38c4.998 0 4.947 0 4.947-1.02V32.898c.051-8.109-.714-10.812-7.854-10.812zm31.876 9.64c0-6.274-2.55-9.64-7.446-9.64-5.253 0-10.404 1.836-10.404 17.085 0 11.985 3.927 14.025 9.384 14.025 4.386 0 8.11-1.428 8.11-2.244a16.796 16.796 0 0 0-.409-4.233 14.597 14.597 0 0 1-7.14 1.836c-3.162 0-4.794-1.071-4.998-8.16 2.805 0 8.211-.102 12.29-.918a39.43 39.43 0 0 0 .613-7.753zm-4.896 4.181c-2.04.561-5.712.714-8.007.663.357-8.16 2.55-10.302 4.947-10.302 2.55 0 3.315 1.786 3.366 5.968 0 1.224-.102 2.448-.306 3.672zm20.299 13.26c-2.091 0-2.091-2.142-2.091-4.64V27.082h5.05c.968 0 .968-.408.968-4.13h-6.018V12.394c-3.876 0-4.743 0-4.743 1.632v8.925h-3.01c-1.02 0-1.07.46-1.07 4.131h4.08v16.932c0 5.305 0 9.283 5.61 9.283 2.295 0 5.05-.46 5.05-1.887 0-1.071-.103-2.091-.358-3.111-1.275.51-1.836.867-3.468.867zM44.873 23.767c1.479-2.04 1.02-4.947-1.02-6.426-.051 0-.051-.051-.102-.051-2.091-1.428-4.947-.918-6.477 1.122-2.244 3.009-4.59 5.1-7.293 6.324-2.296.969-4.795 1.479-7.294 1.581-2.397-.051-4.743-.612-6.936-1.581-2.856-1.275-5.202-3.315-7.242-6.324C7.03 16.32 4.123 15.81 2.032 17.29-.161 18.718-.62 21.625.859 23.767c4.59 6.63 12.648 9.945 13.617 10.302-3.621 2.703-7.6 6.324-9.334 11.22a22.785 22.785 0 0 0 0 15.81c1.837 4.794 5.407 8.772 9.946 11.067 5.1 2.55 11.373 2.55 17.085 0 6.018-2.703 9.792-7.6 10.455-13.158.612-5.865-2.193-11.067-7.09-13.311-5.1-2.244-10.76-.612-14.738 4.131-1.581 1.99-1.224 4.896.816 6.477 1.989 1.581 4.896 1.224 6.477-.816 1.122-1.428 2.346-1.887 3.62-1.428.97.46 1.888 1.734 1.735 3.978s-2.04 4.284-5.1 5.713c-3.162 1.428-6.63 1.428-9.027.153-2.55-1.326-4.488-3.52-5.56-6.172a12.94 12.94 0 0 1 0-9.18c1.122-3.009 3.775-5.712 8.722-8.721 2.04-1.275 4.284-2.55 6.324-3.621-.102.204 11.27-5.967 16.065-12.444zM22.534 0a10.73 10.73 0 0 0-10.761 10.761 10.73 10.73 0 0 0 10.761 10.761 10.73 10.73 0 0 0 10.761-10.761C33.295 4.845 28.45 0 22.534 0zm0 13.923c-1.734 0-3.162-1.428-3.162-3.213 0-1.734 1.428-3.162 3.213-3.162a3.178 3.178 0 0 1 3.162 3.162c-.05 1.785-1.428 3.213-3.213 3.213z"/>
</svg>

